<svg width="82" height="83" viewBox="0 0 82 83" fill="none" xmlns="http://www.w3.org/2000/svg">
<path d="M66.5207 76.13H6.71602C4.37446 76.13 2.46973 74.225 2.46973 71.8834V26.9713C2.46973 24.63 4.37475 22.725 6.71602 22.725H66.521C68.8626 22.725 70.7673 24.63 70.7673 26.9713V71.8837C70.767 74.225 68.8623 76.13 66.5207 76.13ZM6.71602 22.9898C4.52075 22.9898 2.73452 24.7757 2.73452 26.9713V71.8837C2.73452 74.0792 4.52046 75.8652 6.71602 75.8652H66.521C68.7163 75.8652 70.5025 74.0792 70.5025 71.8837V26.9713C70.5025 24.776 68.7163 22.9898 66.521 22.9898H6.71602Z" fill="#B3DCFF"/>
<path d="M73.555 23.1358V68.0479C73.555 70.3201 71.7132 72.1619 69.4412 72.1619H9.6365C7.36429 72.1619 5.52246 70.3201 5.52246 68.0479V23.1358C5.52246 20.8635 7.36429 19.0217 9.6365 19.0217H69.4412C71.7134 19.0217 73.555 20.8635 73.555 23.1358Z" fill="#E3F2FF"/>
<path d="M73.555 23.1358V24.2991H5.52246V23.1358C5.52246 20.8635 7.36429 19.0217 9.6365 19.0217H69.4412C71.7134 19.0217 73.555 20.8635 73.555 23.1358Z" fill="#4DA8F2"/>
<path d="M32.4503 39.5909H13.2511C12.3737 39.5909 11.6621 38.8793 11.6621 38.0018V32.9703C11.6621 32.0928 12.3734 31.3812 13.2511 31.3812H32.4503C33.3278 31.3812 34.0393 32.0928 34.0393 32.9703V38.0018C34.0393 38.8793 33.3278 39.5909 32.4503 39.5909Z" fill="#B3DCFF"/>
<path d="M32.4507 50.6249H13.2516C12.3024 50.6249 11.5303 49.8528 11.5303 48.9036V43.872C11.5303 42.9232 12.3024 42.1508 13.2516 42.1508H32.4507C33.3999 42.1508 34.172 42.9232 34.172 43.872V48.9036C34.172 49.8531 33.3999 50.6249 32.4507 50.6249ZM13.2516 42.4158C12.4484 42.4158 11.7951 43.0692 11.7951 43.872V48.9036C11.7951 49.7068 12.4484 50.3604 13.2516 50.3604H32.4507C33.2539 50.3604 33.9072 49.7071 33.9072 48.9036V43.872C33.9072 43.0692 33.2539 42.4158 32.4507 42.4158H13.2516Z" fill="#B3DCFF"/>
<path d="M56.885 54.508H39.484C39.2555 54.508 39.0703 54.3228 39.0703 54.0942V53.5974C39.0703 53.3689 39.2555 53.1837 39.484 53.1837H56.885C57.1135 53.1837 57.2987 53.3689 57.2987 53.5974V54.0942C57.2987 54.3228 57.1135 54.508 56.885 54.508Z" fill="#B3DCFF"/>
<path d="M56.885 59.3181H39.484C39.2555 59.3181 39.0703 59.1332 39.0703 58.9047V58.4081C39.0703 58.1796 39.2555 57.9941 39.484 57.9941H56.885C57.1135 57.9941 57.2987 58.1796 57.2987 58.4081V58.9047C57.2987 59.1332 57.1135 59.3181 56.885 59.3181Z" fill="#B3DCFF"/>
<path d="M65.2106 50.6239H41.333C40.0126 50.6239 38.9385 49.5498 38.9385 48.2294V33.6426C38.9385 32.3224 40.0126 31.248 41.333 31.248H65.2106C66.5307 31.248 67.6051 32.3221 67.6051 33.6426V48.2294C67.6051 49.5501 66.5307 50.6239 65.2106 50.6239ZM41.333 31.5131C40.1586 31.5131 39.2036 32.4684 39.2036 33.6426V48.2294C39.2036 49.4038 40.1588 50.3591 41.333 50.3591H65.2106C66.3847 50.3591 67.34 49.4035 67.34 48.2294V33.6426C67.34 32.4684 66.3844 31.5131 65.2106 31.5131H41.333Z" fill="#B3DCFF"/>
<path d="M64.1878 54.9267L62.6754 53.608C62.5514 53.5 62.5385 53.3119 62.6465 53.1881C62.7544 53.0641 62.9429 53.0509 63.0669 53.1592L64.1363 54.0913L65.6616 52.3902C65.7713 52.2679 65.96 52.2574 66.0823 52.3674C66.2046 52.4771 66.2148 52.6656 66.1051 52.7882L64.1878 54.9267Z" fill="#4DA8F2"/>
<path d="M64.1878 60.0345L62.6754 58.7161C62.5514 58.6079 62.5385 58.4194 62.6465 58.2954C62.7544 58.1713 62.9429 58.1585 63.0669 58.2664L64.1363 59.1989L65.6616 57.4978C65.7713 57.3752 65.96 57.365 66.0823 57.4747C66.2046 57.5847 66.2148 57.7728 66.1051 57.8954L64.1878 60.0345Z" fill="#4DA8F2"/>
<path d="M56.885 64.4274H39.484C39.2555 64.4274 39.0703 64.2422 39.0703 64.014V63.5172C39.0703 63.289 39.2555 63.1038 39.484 63.1038H56.885C57.1135 63.1038 57.2987 63.289 57.2987 63.5172V64.014C57.2987 64.2422 57.1135 64.4274 56.885 64.4274Z" fill="#B3DCFF"/>
<path d="M64.1878 65.1433L62.6754 63.8246C62.5514 63.7166 62.5385 63.5282 62.6465 63.4045C62.7544 63.2804 62.9429 63.2675 63.0669 63.3755L64.1363 64.3083L65.6616 62.6069C65.7713 62.4846 65.96 62.4743 66.0823 62.5843C66.2046 62.6941 66.2148 62.8822 66.1051 63.0051L64.1878 65.1433Z" fill="#4DA8F2"/>
<path d="M18.3338 35.5153C18.3344 35.4753 18.3329 35.4361 18.3315 35.3963C18.3309 35.3828 18.3312 35.3691 18.3306 35.3556C18.3177 35.116 18.2697 34.886 18.191 34.6701C17.8621 33.7648 16.9999 33.1132 15.9799 33.1001C15.4302 33.093 14.922 33.2721 14.5147 33.5796C13.9456 34.0085 13.5743 34.6867 13.5646 35.4542C13.5512 36.5142 14.2315 37.4215 15.1844 37.744C15.4153 37.8221 15.6616 37.866 15.9185 37.8692C16.2102 37.873 16.4905 37.8241 16.75 37.7317C17.1828 37.5775 17.5581 37.3019 17.8349 36.9452C18.1053 36.5964 18.2811 36.1707 18.3238 35.7055C18.3297 35.6423 18.3329 35.5791 18.3338 35.5153ZM14.1615 35.4615C14.1688 34.8904 14.4436 34.3851 14.8649 34.0632C15.1718 33.8286 15.5566 33.6914 15.9726 33.6966C16.7374 33.7066 17.3838 34.1952 17.6304 34.874L17.6307 34.8749C17.6892 35.0364 17.7252 35.2084 17.7349 35.3875C17.7369 35.427 17.7378 35.4671 17.7372 35.5074C17.7352 35.6807 17.7068 35.8471 17.6588 36.0051C17.5947 36.2155 17.4944 36.4098 17.363 36.5792C17.3147 36.6412 17.2623 36.6994 17.2068 36.7547C16.8782 37.0798 16.425 37.2788 15.9264 37.2723C15.7944 37.2706 15.6663 37.2539 15.5428 37.2249C15.4861 37.2118 15.4302 37.1968 15.3758 37.1784C14.6616 36.937 14.1513 36.2565 14.1615 35.4615Z" fill="#E3F2FF"/>
<g opacity="0.78">
<path d="M79.4775 49.6655H55.5996C54.3502 49.6655 53.3379 48.6525 53.3379 47.4035V32.8167C53.3379 31.5673 54.3505 30.5547 55.5996 30.5547H79.4772C80.7265 30.5547 81.7394 31.5673 81.7394 32.8167V47.4035C81.7394 48.6525 80.7265 49.6655 79.4775 49.6655Z" fill="#4DA8F2"/>
</g>
<path d="M64.8891 40.9347H57.0537C56.5823 40.9347 56.2002 40.5526 56.2002 40.0815V33.6915C56.2002 33.2201 56.5823 32.838 57.0537 32.838H64.8891C65.3605 32.838 65.7426 33.2201 65.7426 33.6915V40.0815C65.7426 40.5526 65.3607 40.9347 64.8891 40.9347Z" fill="#E3F2FF"/>
<path d="M79.119 34.9976H67.8399C67.5637 34.9976 67.3398 34.7738 67.3398 34.4976V33.3378C67.3398 33.0618 67.5637 32.838 67.8399 32.838H79.119C79.3949 32.838 79.6188 33.0618 79.6188 33.3378V34.4976C79.6188 34.7738 79.3949 34.9976 79.119 34.9976Z" fill="#E3F2FF"/>
<path d="M79.119 38.3769H67.8399C67.5637 38.3769 67.3398 38.1531 67.3398 37.8769V36.7171C67.3398 36.4409 67.5637 36.217 67.8399 36.217H79.119C79.3949 36.217 79.6188 36.4409 79.6188 36.7171V37.8769C79.6188 38.1531 79.3949 38.3769 79.119 38.3769Z" fill="#E3F2FF"/>
<path d="M79.1649 47.0526H74.8147C74.564 47.0526 74.3604 46.8493 74.3604 46.5982V46.3923C74.3604 46.1415 74.5637 45.9379 74.8147 45.9379H79.1649C79.4159 45.9379 79.6193 46.1412 79.6193 46.3923V46.5982C79.6193 46.849 79.4162 47.0526 79.1649 47.0526Z" fill="#E3F2FF"/>
<g opacity="0.78">
<path d="M20.7882 51.5479H1.58903C0.711567 51.5479 0 50.8363 0 49.9589V44.9276C0 44.0501 0.711567 43.3383 1.58903 43.3383H20.7882C21.6659 43.3383 22.3772 44.0501 22.3772 44.9276V49.9589C22.3769 50.8363 21.6656 51.5479 20.7882 51.5479Z" fill="#4DA8F2"/>
</g>
<path d="M58.2312 0.462578L58.1709 0.204811C58.639 0.0953841 58.881 0.000877756 58.8836 0L58.9808 0.246358C58.9702 0.250161 58.718 0.348762 58.2312 0.462578Z" fill="#C2BEBC"/>
<path d="M12.1204 57.281H10.084V64.6784H12.1204V57.281Z" fill="#78C2FF"/>
<path d="M15.0188 56.5354H12.9824V64.6792H15.0188V56.5354Z" fill="#78C2FF"/>
<path d="M17.9553 58.0825H15.9189V64.6765H17.9553V58.0825Z" fill="#78C2FF"/>
<path d="M20.8919 55.0291H18.8555V64.6791H20.8919V55.0291Z" fill="#78C2FF"/>
<path d="M23.9739 55.9905H21.9375V64.6794H23.9739V55.9905Z" fill="#78C2FF"/>
<path d="M27.0969 57.281H25.0605V64.6784H27.0969V57.281Z" fill="#78C2FF"/>
<path d="M29.9944 56.5354H27.958V64.6792H29.9944V56.5354Z" fill="#78C2FF"/>
<path d="M32.9309 58.0825H30.8945V64.6765H32.9309V58.0825Z" fill="#78C2FF"/>
<path d="M6.94737 47.1831C6.94707 47.1717 6.94737 47.16 6.94678 47.1486C6.93391 46.9092 6.88592 46.679 6.80722 46.463C6.47835 45.5578 5.61611 44.9062 4.59615 44.893C4.04639 44.886 3.53817 45.0651 3.13089 45.3726C2.56181 45.8018 2.19052 46.4794 2.18086 47.2469C2.1674 48.3069 2.84767 49.2145 3.80062 49.5369C4.03147 49.6151 4.27811 49.6586 4.53471 49.6622C4.83636 49.666 5.12573 49.613 5.39257 49.5141C5.81419 49.3582 6.17992 49.0872 6.45085 48.7379C6.71945 48.3918 6.8947 47.9696 6.93888 47.5084C6.94503 47.4423 6.94883 47.3756 6.94971 47.3083C6.95029 47.2662 6.94883 47.2243 6.94737 47.1831ZM2.77744 47.2545C2.78476 46.6833 3.0595 46.1781 3.48082 45.8565C3.78774 45.6216 4.17249 45.4846 4.58855 45.4896C5.35336 45.4993 5.99968 45.9882 6.24633 46.6673L6.24692 46.6681C6.30544 46.8296 6.34142 47.002 6.35108 47.1807C6.35313 47.2205 6.354 47.2603 6.35342 47.3007C6.35137 47.4742 6.32299 47.6407 6.275 47.799C6.21093 48.0091 6.11057 48.203 5.9795 48.3722C5.93151 48.4345 5.87885 48.4927 5.82326 48.5477C5.49468 48.8728 5.04147 49.0717 4.5429 49.0656C4.41065 49.0638 4.2825 49.0471 4.15874 49.0182C4.10227 49.005 4.04639 48.9901 3.99226 48.972C3.27747 48.7297 2.7672 48.0497 2.77744 47.2545Z" fill="#E3F2FF"/>
<g opacity="0.74">
<path d="M59.595 82.3326H43.6526C42.5297 82.3326 41.6191 81.4221 41.6191 80.2991V68.7233C41.6191 67.6003 42.5297 66.6898 43.6526 66.6898H59.595C60.7179 66.6898 61.6285 67.6003 61.6285 68.7233V80.2991C61.6285 81.4221 60.7176 82.3326 59.595 82.3326Z" fill="#4DA8F2"/>
</g>
<path d="M59.1903 80.4443H52.0492C51.3622 80.4443 50.8057 79.8878 50.8057 79.2011V69.5327C50.8057 68.8457 51.3622 68.2892 52.0492 68.2892H59.1903C59.8773 68.2892 60.4338 68.8457 60.4338 69.5327V79.2011C60.4338 79.8878 59.877 80.4443 59.1903 80.4443Z" fill="#E3F2FF"/>
<path d="M48.0983 70.022H44.4416C44.0206 70.022 43.6797 69.6806 43.6797 69.2598V69.0512C43.6797 68.6305 44.0208 68.2893 44.4416 68.2893H48.0983C48.5191 68.2893 48.8602 68.6305 48.8602 69.0512V69.2598C48.8602 69.6806 48.5191 70.022 48.0983 70.022Z" fill="#E3F2FF"/>
<path d="M48.0983 73.2568H44.4416C44.0206 73.2568 43.6797 72.9156 43.6797 72.4949V72.286C43.6797 71.865 44.0208 71.5238 44.4416 71.5238H48.0983C48.5191 71.5238 48.8602 71.865 48.8602 72.286V72.4949C48.8602 72.9156 48.5191 73.2568 48.0983 73.2568Z" fill="#E3F2FF"/>
</svg>
