<svg width="146" height="26" viewBox="0 0 146 26" fill="none" xmlns="http://www.w3.org/2000/svg">
<g clip-path="url(#clip0_120_312)">
<path d="M19.7143 7.37607C19.7143 7.31395 19.6348 7.28533 19.5909 7.32929L19.0436 7.87747C18.3992 8.51561 17.7405 9.13935 17.1273 9.79668C16.2817 10.6843 15.4146 11.548 14.557 12.4188C14.0995 12.8842 13.6659 13.3784 13.1773 13.8102C13.0833 13.8944 12.9724 13.9575 12.8522 13.9953C12.7319 14.0331 12.6049 14.0448 12.4798 14.0296C12.3547 14.0144 12.2342 13.9726 12.1264 13.9071C12.0187 13.8415 11.9262 13.7537 11.855 13.6495C11.7285 13.4681 11.6713 13.2472 11.6937 13.027C11.7161 12.8069 11.8167 12.6021 11.9772 12.45C12.6263 11.8166 13.2419 11.1473 13.8767 10.4996C14.3558 10.0198 14.8349 9.53998 15.3283 9.06018C16.2242 8.15815 17.1193 7.25372 18.0136 6.3469C18.0349 6.32532 18.0304 6.28894 18.0023 6.2776C17.955 6.25853 17.9036 6.27253 17.8579 6.27253H7.09534C6.89053 6.25297 6.68468 6.29739 6.50608 6.39968C6.37205 6.48549 6.26254 6.60463 6.18822 6.74549C6.11391 6.88635 6.07734 7.04411 6.08209 7.20335C6.07011 8.78909 6.08209 10.3748 6.08209 11.9606C6.08209 12.0038 6.06053 12.0637 6.12521 12.0805C6.18988 12.0973 6.19467 12.0565 6.22582 12.0254C6.82946 11.404 7.42351 10.7827 8.04392 10.1685C8.45833 9.75109 8.88231 9.34327 9.29672 8.92824C9.71112 8.51321 10.0561 8.14135 10.4393 7.75271C10.5288 7.63544 10.6409 7.53725 10.7688 7.46392C10.8967 7.39059 11.038 7.3436 11.1843 7.3257C11.4264 7.31988 11.661 7.41018 11.8369 7.57692C12.0128 7.74365 12.1158 7.97328 12.1233 8.21572C12.1246 8.35106 12.0973 8.48517 12.0433 8.60921C11.9892 8.73325 11.9095 8.84441 11.8095 8.93543C11.1052 9.65513 10.4178 10.3748 9.69914 11.0945C9.18653 11.5959 8.68589 12.1117 8.17807 12.6179C7.45945 13.3376 6.76238 14.0429 6.05814 14.7602C5.94795 14.873 5.89286 15.0337 5.76111 15.1369C4.98739 15.739 4.3598 16.4923 3.65795 17.1665C3.6238 17.1951 3.5983 17.2327 3.58434 17.2751C3.57038 17.3175 3.56849 17.363 3.5789 17.4064C3.62897 17.8116 3.54481 18.222 3.33936 18.5747C3.12932 18.9481 2.78762 19.2296 2.3812 19.3639C2.07449 19.4789 1.73968 19.4957 1.42304 19.4119C1.01759 19.3063 0.65609 19.0744 0.390626 18.7498C0.19372 18.5195 0.0651063 18.2386 0.0193396 17.9389C-0.0249423 17.6761 -0.0103017 17.4068 0.062201 17.1503C0.134704 16.8939 0.263253 16.6569 0.438534 16.4563C0.693598 16.1501 1.05118 15.9471 1.4446 15.8854C1.66912 15.8326 1.90277 15.8326 2.12729 15.8854C2.19429 15.9031 2.26515 15.8995 2.32999 15.875C2.45842 15.8264 2.53697 15.6989 2.63287 15.6007C3.13811 15.083 3.65394 14.5732 4.16577 14.0693C4.20542 14.0324 4.23664 13.9874 4.25731 13.9373C4.27798 13.8872 4.28761 13.8332 4.28554 13.779C4.28554 11.5695 4.28554 9.35766 4.28554 7.14817C4.28645 6.75847 4.37228 6.37367 4.53706 6.02063C4.73747 5.56874 5.06237 5.18343 5.47366 4.90989C5.88994 4.6149 6.38659 4.45497 6.89653 4.45169H18.9214C19.1789 4.44179 19.4354 4.48761 19.6736 4.58603C19.7311 4.61242 19.767 4.58602 19.8101 4.54283C20.1982 4.1446 20.603 3.76317 20.9815 3.35533C21.2426 3.07705 21.5132 2.80836 21.7887 2.54447C21.9612 2.38133 21.9564 2.39333 21.7887 2.2326C21.6582 2.12753 21.537 2.01163 21.4263 1.88621C21.3232 1.76946 21.2255 1.63546 21.2216 1.47977C21.2196 1.40145 21.2352 1.32367 21.2671 1.25214C21.299 1.18061 21.3465 1.11713 21.4061 1.06636C21.4657 1.01559 21.5358 0.978807 21.6115 0.958709C22.1097 0.790778 22.6199 0.663637 23.1206 0.500504C23.5062 0.375755 23.8967 0.260604 24.2919 0.157447C24.4793 0.0811362 24.6757 0.0295219 24.8764 0.00390625C25.3147 0.00390625 25.492 0.385358 25.4034 0.747609C25.3363 1.0115 25.2644 1.27539 25.195 1.53688C25.1255 1.79837 25.0417 2.10064 24.9698 2.38612C24.8979 2.67161 24.862 2.88992 24.7949 3.13942C24.7371 3.42514 24.657 3.70588 24.5554 3.97907C24.5269 4.04722 24.483 4.10785 24.4273 4.15625C24.3715 4.20464 24.3054 4.23948 24.234 4.25805C24.1626 4.27663 24.0878 4.27844 24.0156 4.26334C23.9434 4.24824 23.8756 4.21663 23.8176 4.17099C23.6574 4.03371 23.5062 3.88627 23.3649 3.72958C23.2763 3.64561 23.226 3.62402 23.1253 3.72958C22.5097 4.35785 21.8872 4.97924 21.2668 5.60496C21.2379 5.63411 21.2029 5.65829 21.1809 5.69297C21.1698 5.71041 21.1624 5.72991 21.1591 5.75029C21.1557 5.77067 21.1565 5.79151 21.1614 5.81158C21.1711 5.85152 21.1971 5.88537 21.2152 5.92228C21.4286 6.3582 21.5335 6.83975 21.5204 7.3257C21.5204 11.2337 21.5204 15.1417 21.5204 19.0497C21.5411 19.6867 21.3382 20.3109 20.9469 20.8137C20.5557 21.3164 20.0009 21.6659 19.3789 21.8013C19.1015 21.8563 18.8181 21.8756 18.5358 21.8589C16.126 21.8589 13.7154 21.8589 11.3041 21.8589C11.2553 21.8552 11.2063 21.8621 11.1604 21.879C11.1145 21.896 11.0728 21.9227 11.0382 21.9573C10.6629 22.3379 10.2844 22.7154 9.90275 23.0896C9.87847 23.1147 9.8604 23.1451 9.85 23.1784C9.8396 23.2118 9.83715 23.2471 9.84287 23.2815C9.86561 23.488 9.86561 23.6964 9.84287 23.9029C9.80619 24.2041 9.69105 24.4903 9.509 24.7329C9.32694 24.9754 9.08438 25.1657 8.80566 25.2847C8.51246 25.426 8.18328 25.4745 7.86187 25.4239C7.6209 25.394 7.38868 25.3146 7.17971 25.1908C6.97075 25.067 6.78954 24.9013 6.6474 24.7041C6.44379 24.4059 6.32611 24.0573 6.30726 23.6966C6.2891 23.3599 6.37257 23.0255 6.5468 22.737C6.66744 22.5166 6.83301 22.3241 7.03274 22.172C7.23248 22.02 7.46192 21.9116 7.70617 21.8541C7.92919 21.8193 8.15626 21.8193 8.37928 21.8541C8.45121 21.861 8.52374 21.8502 8.59054 21.8226C8.65734 21.795 8.71639 21.7515 8.76254 21.6958C9.50991 20.9281 10.2669 20.17 11.0214 19.4071C11.5819 18.841 12.1409 18.274 12.6982 17.7062C13.3593 17.0377 14.0228 16.3708 14.6888 15.7054C15.2157 15.1753 15.7523 14.6523 16.2745 14.1173C16.3776 14.0107 16.5059 13.932 16.6475 13.8884C16.7891 13.8448 16.9395 13.8378 17.0845 13.8679C17.2296 13.8981 17.3647 13.9645 17.4773 14.0609C17.5899 14.1573 17.6763 14.2807 17.7285 14.4196C17.8081 14.5864 17.8315 14.7745 17.7953 14.9558C17.759 15.137 17.6649 15.3016 17.5273 15.4248C16.6051 16.3532 15.6781 17.2768 14.7558 18.2052C14.2911 18.685 13.8384 19.1504 13.3737 19.6158C13.2763 19.6978 13.185 19.7868 13.1006 19.8821C13.0719 19.9181 13.0144 19.9493 13.0311 19.9973C13.0442 20.0345 13.0947 20.0299 13.139 20.0293C13.1629 20.0289 13.1869 20.0309 13.2108 20.0309C15.0696 20.0309 16.9285 20.0309 18.7873 20.0309C18.9867 20.0307 19.1812 19.9682 19.3435 19.8521C19.5058 19.736 19.6279 19.5721 19.6927 19.3831C19.7146 19.3151 19.7219 19.2431 19.7143 19.172C19.7143 15.2408 19.7143 11.3088 19.7143 7.37607ZM8.11818 22.9769C7.95378 22.9754 7.79511 23.0373 7.67512 23.1499C7.55514 23.2625 7.48305 23.417 7.47382 23.5814C7.46652 23.6667 7.47661 23.7525 7.50349 23.8338C7.53036 23.915 7.57346 23.9899 7.63016 24.054C7.68685 24.118 7.75597 24.1698 7.83328 24.2062C7.9106 24.2427 7.99452 24.263 8.07992 24.2659C8.16532 24.2688 8.25042 24.2543 8.33005 24.2233C8.40968 24.1922 8.48217 24.1453 8.54311 24.0853C8.60405 24.0253 8.65217 23.9535 8.68454 23.8743C8.71691 23.7951 8.73285 23.7102 8.7314 23.6246C8.73527 23.4574 8.67297 23.2955 8.55809 23.1741C8.44321 23.0528 8.28507 22.9819 8.11818 22.9769ZM2.35954 17.8948C2.41715 17.7432 2.42672 17.5665 2.3622 17.4178C2.26088 17.1841 1.98413 17.0116 1.76798 17.0225C1.60744 17.0324 1.45695 17.1041 1.348 17.2226C1.23905 17.3411 1.18011 17.4972 1.1835 17.6582C1.17839 17.7402 1.19053 17.8222 1.21914 17.8991C1.24774 17.976 1.29217 18.046 1.34954 18.1046C1.40692 18.1632 1.47595 18.2091 1.55217 18.2392C1.62838 18.2694 1.71007 18.2831 1.79193 18.2796C1.87333 18.281 1.95415 18.2657 2.02942 18.2346C2.10468 18.2035 2.1728 18.1573 2.22957 18.0989C2.28635 18.0405 2.33058 17.971 2.35954 17.8948Z" fill="url(#paint0_linear_120_312)"/>
<path d="M10.985 15.4943C10.99 15.6115 10.97 15.7285 10.9262 15.8373C10.8824 15.9461 10.8158 16.0443 10.7311 16.1253C10.252 16.6194 9.7729 17.1016 9.27945 17.591L7.78472 19.1144C7.6985 19.2169 7.59256 19.3009 7.47321 19.3615C7.35386 19.4221 7.22355 19.458 7.09005 19.4671C6.95742 19.4693 6.82593 19.4422 6.70493 19.3878C6.58393 19.3334 6.47638 19.2529 6.38994 19.1521C6.3035 19.0514 6.24029 18.9328 6.2048 18.8048C6.16931 18.6767 6.16241 18.5425 6.18459 18.4115C6.21992 18.198 6.32628 18.0027 6.48641 17.8573C7.12519 17.2176 7.76396 16.5779 8.40273 15.9381C8.73569 15.5999 9.06865 15.2616 9.38964 14.9113C9.50504 14.7851 9.65208 14.692 9.81551 14.6418C9.97893 14.5916 10.1528 14.5861 10.3191 14.6259C10.5094 14.6782 10.6775 14.7913 10.7977 14.9481C10.9179 15.1048 10.9836 15.2966 10.985 15.4943Z" fill="#326EEF"/>
</g>
<path d="M36.6688 6.20194V8.42928H32.454V11.2563H36.4975V13.4836H32.454V18.1953H30.0553V6.20194H36.6688ZM43.815 9.35449V11.4619H42.7185C42.1131 11.4619 41.5991 11.6675 41.1765 12.0787C40.7539 12.4899 40.5426 13.021 40.5426 13.6721V18.1953H38.2638V9.47442H40.4569V10.451C41.1765 9.72 42.0617 9.35449 43.1126 9.35449H43.815ZM49.1192 18.4009C48.2853 18.4009 47.5029 18.2124 46.7719 17.8355C46.0523 17.4472 45.4755 16.9103 45.0414 16.225C44.6074 15.5282 44.3904 14.7344 44.3904 13.8434C44.3904 12.9525 44.6074 12.1587 45.0414 11.4619C45.4755 10.7651 46.0523 10.2283 46.7719 9.85135C47.5029 9.463 48.2853 9.26882 49.1192 9.26882C49.953 9.26882 50.7297 9.463 51.4493 9.85135C52.1803 10.2283 52.7629 10.7651 53.1969 11.4619C53.631 12.1587 53.848 12.9525 53.848 13.8434C53.848 14.7344 53.631 15.5282 53.1969 16.225C52.7629 16.9103 52.1803 17.4472 51.4493 17.8355C50.7297 18.2124 49.953 18.4009 49.1192 18.4009ZM49.1192 16.2935C49.8159 16.2935 50.3985 16.0594 50.8668 15.591C51.3351 15.1227 51.5692 14.5402 51.5692 13.8434C51.5692 13.1353 51.3351 12.547 50.8668 12.0787C50.3985 11.6104 49.8159 11.3762 49.1192 11.3762C48.4224 11.3762 47.8399 11.6104 47.3716 12.0787C46.9033 12.547 46.6691 13.1353 46.6691 13.8434C46.6691 14.5402 46.9033 15.1227 47.3716 15.591C47.8399 16.0594 48.4224 16.2935 49.1192 16.2935ZM60.3615 9.26882C61.0468 9.26882 61.6579 9.43444 62.1948 9.76569C62.7316 10.0855 63.1485 10.531 63.4455 11.1021C63.7539 11.6732 63.9081 12.3129 63.9081 13.021V18.1953H61.6294V13.4494C61.6294 12.8211 61.4637 12.3186 61.1325 11.9416C60.8127 11.5647 60.3672 11.3762 59.7961 11.3762C59.2364 11.3762 58.7738 11.5704 58.4083 11.9588C58.0428 12.3357 57.86 12.8326 57.86 13.4494V18.1953H55.5813V9.47442H57.7743V10.3654C58.4939 9.63433 59.3563 9.26882 60.3615 9.26882ZM70.9571 11.5818H68.8669V14.7344C68.8669 15.157 68.9868 15.4882 69.2267 15.7281C69.4665 15.968 69.7978 16.0879 70.2204 16.0879H70.9571V18.1953H69.6379C68.6898 18.1953 67.9417 17.9269 67.3934 17.39C66.8565 16.8418 66.5881 16.0993 66.5881 15.1627V11.5818H65.1661V9.47442H66.5881V7.16141H68.8669V9.47442H70.9571V11.5818ZM76.6398 9.26882C77.4394 9.26882 78.1875 9.463 78.8843 9.85135C79.5925 10.2397 80.1521 10.7708 80.5633 11.4448C80.986 12.1187 81.1973 12.8725 81.1973 13.7064C81.1973 14.0148 81.163 14.3403 81.0945 14.683H74.4125C74.5381 15.2769 74.7951 15.7395 75.1835 16.0708C75.5718 16.3906 76.063 16.5505 76.6569 16.5505C77.1138 16.5505 77.4965 16.4706 77.8049 16.3106C78.1247 16.1393 78.3874 15.888 78.593 15.5568H80.8889C80.5576 16.3906 80.0265 17.0759 79.2955 17.6128C78.5644 18.1382 77.6792 18.4009 76.6398 18.4009C75.8402 18.4009 75.0864 18.2124 74.3782 17.8355C73.67 17.4472 73.1046 16.9103 72.682 16.225C72.2594 15.5282 72.0481 14.7344 72.0481 13.8434C72.0481 12.9525 72.2594 12.1587 72.682 11.4619C73.1046 10.7651 73.6643 10.2283 74.3611 9.85135C75.0692 9.463 75.8288 9.26882 76.6398 9.26882ZM76.6398 11.1192C76.0687 11.1192 75.589 11.2791 75.2006 11.599C74.8237 11.9074 74.5667 12.3471 74.4296 12.9182H78.8671C78.7529 12.3814 78.5073 11.9473 78.1304 11.6161C77.7649 11.2848 77.268 11.1192 76.6398 11.1192ZM87.7013 9.26882C88.3866 9.26882 88.9977 9.43444 89.5345 9.76569C90.0714 10.0855 90.4883 10.531 90.7853 11.1021C91.0937 11.6732 91.2479 12.3129 91.2479 13.021V18.1953H88.9691V13.4494C88.9691 12.8211 88.8035 12.3186 88.4723 11.9416C88.1525 11.5647 87.707 11.3762 87.1359 11.3762C86.5762 11.3762 86.1136 11.5704 85.7481 11.9588C85.3826 12.3357 85.1998 12.8326 85.1998 13.4494V18.1953H82.9211V9.47442H85.1141V10.3654C85.8337 9.63433 86.6961 9.26882 87.7013 9.26882ZM99.9891 5.85928H102.268V18.1953H100.075V17.3044C99.7207 17.6813 99.3152 17.9612 98.8583 18.1439C98.4014 18.3152 97.8703 18.4009 97.2649 18.4009C96.5225 18.4009 95.8143 18.2067 95.1404 17.8184C94.4665 17.43 93.9239 16.8875 93.5127 16.1907C93.1015 15.4939 92.8959 14.7058 92.8959 13.8263C92.8959 12.9582 93.1015 12.1758 93.5127 11.479C93.9239 10.7823 94.4665 10.2397 95.1404 9.85135C95.8143 9.463 96.5225 9.26882 97.2649 9.26882C97.8589 9.26882 98.3729 9.35449 98.8069 9.52582C99.2524 9.68573 99.6465 9.93702 99.9891 10.2797V5.85928ZM97.6247 16.2935C98.3215 16.2935 98.904 16.0594 99.3723 15.591C99.8406 15.1227 100.075 14.5345 100.075 13.8263C100.075 13.1295 99.8406 12.547 99.3723 12.0787C98.904 11.6104 98.3215 11.3762 97.6247 11.3762C96.928 11.3762 96.3454 11.6104 95.8771 12.0787C95.4088 12.547 95.1746 13.1295 95.1746 13.8263C95.1746 14.5345 95.4088 15.1227 95.8771 15.591C96.3454 16.0594 96.928 16.2935 97.6247 16.2935ZM113.798 18.1953H111.399V8.42928H108.401V6.20194H116.779V8.42928H113.798V18.1953ZM123.499 9.47442H125.692V18.1953H123.499V17.3044C123.145 17.6813 122.74 17.9612 122.283 18.1439C121.826 18.3152 121.295 18.4009 120.689 18.4009C119.947 18.4009 119.239 18.2067 118.565 17.8184C117.891 17.43 117.348 16.8875 116.937 16.1907C116.526 15.4939 116.32 14.7115 116.32 13.8434C116.32 12.9639 116.526 12.1758 116.937 11.479C117.348 10.7823 117.891 10.2397 118.565 9.85135C119.239 9.463 119.947 9.26882 120.689 9.26882C121.295 9.26882 121.826 9.3602 122.283 9.54295C122.74 9.71429 123.145 9.98842 123.499 10.3654V9.47442ZM121.049 16.2935C121.746 16.2935 122.329 16.0594 122.797 15.591C123.265 15.1227 123.499 14.5402 123.499 13.8434C123.499 13.1353 123.265 12.547 122.797 12.0787C122.329 11.6104 121.746 11.3762 121.049 11.3762C120.353 11.3762 119.77 11.6104 119.302 12.0787C118.833 12.547 118.599 13.1353 118.599 13.8434C118.599 14.5402 118.833 15.1227 119.302 15.591C119.77 16.0594 120.353 16.2935 121.049 16.2935ZM131.44 18.4009C130.697 18.4009 130.04 18.2753 129.469 18.024C128.898 17.7727 128.453 17.4243 128.133 16.9788C127.813 16.5334 127.636 16.0308 127.602 15.4711H129.863C129.898 15.7567 130.057 16.0022 130.343 16.2078C130.629 16.4134 130.994 16.5162 131.44 16.5162C131.851 16.5162 132.171 16.4534 132.399 16.3278C132.639 16.1907 132.759 15.9851 132.759 15.711C132.759 15.4368 132.622 15.2369 132.348 15.1113C132.074 14.9742 131.639 14.8372 131.046 14.7001C130.383 14.5402 129.835 14.3746 129.401 14.2032C128.978 14.0319 128.613 13.7578 128.304 13.3808C127.996 13.0039 127.842 12.4899 127.842 11.8388C127.842 11.3591 127.99 10.925 128.287 10.5367C128.595 10.1369 129.012 9.82851 129.538 9.61149C130.063 9.38304 130.657 9.26882 131.32 9.26882C131.936 9.26882 132.508 9.39446 133.033 9.64575C133.558 9.88562 133.981 10.2226 134.301 10.6566C134.632 11.0792 134.809 11.559 134.832 12.0958H132.605C132.582 11.8217 132.445 11.599 132.193 11.4276C131.954 11.2449 131.634 11.1535 131.234 11.1535C130.891 11.1535 130.617 11.2106 130.412 11.3248C130.217 11.439 130.12 11.599 130.12 11.8046C130.12 12.0787 130.257 12.2843 130.532 12.4214C130.817 12.5584 131.268 12.6955 131.885 12.8326C132.536 12.9925 133.067 13.1581 133.478 13.3294C133.901 13.4893 134.267 13.7521 134.575 14.1176C134.883 14.4717 135.038 14.9514 135.038 15.5568C135.038 16.4477 134.706 17.1445 134.044 17.647C133.381 18.1496 132.513 18.4009 131.44 18.4009ZM141.435 13.7064L145.479 18.1953H142.738L139.379 14.3917V18.1953H137.101V5.85928H139.379V13.141L142.566 9.47442H145.205L141.435 13.7064Z" fill="#00002B"/>
<defs>
<linearGradient id="paint0_linear_120_312" x1="25.4256" y1="0.00390625" x2="2.6817" y2="19.1319" gradientUnits="userSpaceOnUse">
<stop stop-color="#03D6FA"/>
<stop offset="1" stop-color="#3762EE"/>
</linearGradient>
<clipPath id="clip0_120_312">
<rect width="25.4367" height="25.4367" fill="white"/>
</clipPath>
</defs>
</svg>
