<svg width="79" height="84" viewBox="0 0 79 84" fill="none" xmlns="http://www.w3.org/2000/svg">
<path d="M70.2929 83.3451H4.81875C2.25522 83.3451 0.169922 81.2595 0.169922 78.696V29.5263C0.169922 26.9631 2.25554 24.8774 4.81875 24.8774H70.2932C72.8567 24.8774 74.942 26.9631 74.942 29.5263V78.6963C74.9417 81.2595 72.8564 83.3451 70.2929 83.3451ZM4.81875 25.1673C2.41538 25.1673 0.459813 27.1226 0.459813 29.5263V78.6963C0.459813 81.1 2.41506 83.0553 4.81875 83.0553H70.2932C72.6966 83.0553 74.6521 81.1 74.6521 78.6963V29.5263C74.6521 27.1229 72.6966 25.1673 70.2932 25.1673H4.81875Z" fill="#B3DCFF"/>
<path d="M77.9946 25.3284V74.4981C77.9946 76.9857 75.9782 79.0022 73.4909 79.0022H8.01674C5.52912 79.0022 3.5127 76.9857 3.5127 74.4981V25.3284C3.5127 22.8408 5.52912 20.8243 8.01674 20.8243H73.4909C75.9785 20.8243 77.9946 22.8408 77.9946 25.3284Z" fill="#E3F2FF"/>
<path d="M77.9946 25.3284V26.602H3.5127V25.3284C3.5127 22.8408 5.52912 20.8243 8.01674 20.8243H73.4909C75.9785 20.8243 77.9946 22.8408 77.9946 25.3284Z" fill="#4DA8F2"/>
<path d="M33.3253 43.3418H12.3061C11.3454 43.3418 10.5664 42.5628 10.5664 41.6021V36.0936C10.5664 35.1329 11.3451 34.3539 12.3061 34.3539H33.3253C34.2859 34.3539 35.0649 35.1329 35.0649 36.0936V41.6021C35.0649 42.5628 34.2859 43.3418 33.3253 43.3418Z" fill="#B3DCFF"/>
<path d="M59.7446 56.8561H40.6941C40.444 56.8561 40.2412 56.6534 40.2412 56.4032V55.8593C40.2412 55.6091 40.444 55.4064 40.6941 55.4064H59.7446C59.9948 55.4064 60.1976 55.6091 60.1976 55.8593V56.4032C60.1976 56.6534 59.9948 56.8561 59.7446 56.8561Z" fill="#B3DCFF"/>
<path d="M59.7446 40.288H40.6941C40.444 40.288 40.2412 40.0853 40.2412 39.8351V39.2912C40.2412 39.041 40.444 38.8383 40.6941 38.8383H59.7446C59.9948 38.8383 60.1976 39.041 60.1976 39.2912V39.8351C60.1976 40.0853 59.9948 40.288 59.7446 40.288Z" fill="#B3DCFF"/>
<path d="M59.7446 62.1235H40.6941C40.444 62.1235 40.2412 61.9211 40.2412 61.6709V61.1273C40.2412 60.8771 40.444 60.6741 40.6941 60.6741H59.7446C59.9948 60.6741 60.1976 60.8771 60.1976 61.1273V61.6709C60.1976 61.9211 59.9948 62.1235 59.7446 62.1235Z" fill="#B3DCFF"/>
<path d="M59.7446 45.5553H40.6941C40.444 45.5553 40.2412 45.3528 40.2412 45.1027V44.5591C40.2412 44.3089 40.444 44.1058 40.6941 44.1058H59.7446C59.9948 44.1058 60.1976 44.3089 60.1976 44.5591V45.1027C60.1976 45.3528 59.9948 45.5553 59.7446 45.5553Z" fill="#B3DCFF"/>
<path d="M67.7393 57.313L66.0836 55.8693C65.9477 55.7511 65.9337 55.5451 66.0519 55.4096C66.1701 55.2738 66.3763 55.2594 66.5121 55.3779L67.6829 56.3984L69.3528 54.5361C69.4729 54.4022 69.6795 54.3907 69.8134 54.5111C69.9473 54.6312 69.9585 54.8375 69.8384 54.9717L67.7393 57.313Z" fill="#4DA8F2"/>
<path d="M67.7393 40.7446L66.0836 39.3009C65.9477 39.1827 65.9337 38.9768 66.0519 38.8413C66.1701 38.7054 66.3763 38.691 66.5121 38.8095L67.6829 39.8301L69.3528 37.9677C69.4729 37.8338 69.6795 37.8223 69.8134 37.9427C69.9473 38.0629 69.9585 38.2692 69.8384 38.4034L67.7393 40.7446Z" fill="#4DA8F2"/>
<path d="M67.7393 62.9057L66.0836 61.4624C65.9477 61.3438 65.9337 61.1375 66.0519 61.0017C66.1701 60.8659 66.3763 60.8518 66.5121 60.97L67.6829 61.9909L69.3528 60.1285C69.4729 59.9943 69.6795 59.9831 69.8134 60.1032C69.9473 60.2237 69.9585 60.4296 69.8384 60.5639L67.7393 62.9057Z" fill="#4DA8F2"/>
<path d="M67.7393 46.339L66.0836 44.8956C65.9477 44.7771 65.9337 44.5708 66.0519 44.435C66.1701 44.2991 66.3763 44.2851 66.5121 44.4032L67.6829 45.4241L69.3528 43.5618C69.4729 43.4276 69.6795 43.4163 69.8134 43.5365C69.9473 43.6569 69.9585 43.8629 69.8384 43.9971L67.7393 46.339Z" fill="#4DA8F2"/>
<path d="M59.7446 67.715H40.6941C40.444 67.715 40.2412 67.5122 40.2412 67.2624V66.7185C40.2412 66.4686 40.444 66.2659 40.6941 66.2659H59.7446C59.9948 66.2659 60.1976 66.4686 60.1976 66.7185V67.2624C60.1976 67.5122 59.9948 67.715 59.7446 67.715Z" fill="#B3DCFF"/>
<path d="M59.7446 51.1467H40.6941C40.444 51.1467 40.2412 50.9439 40.2412 50.694V50.1501C40.2412 49.9003 40.444 49.6975 40.6941 49.6975H59.7446C59.9948 49.6975 60.1976 49.9003 60.1976 50.1501V50.694C60.1976 50.9439 59.9948 51.1467 59.7446 51.1467Z" fill="#B3DCFF"/>
<path d="M67.7393 68.4989L66.0836 67.0553C65.9477 66.9371 65.9337 66.7308 66.0519 66.5953C66.1701 66.4595 66.3763 66.4454 66.5121 66.5636L67.6829 67.5848L69.3528 65.7221C69.4729 65.5882 69.6795 65.577 69.8134 65.6974C69.9473 65.8175 69.9585 66.0235 69.8384 66.158L67.7393 68.4989Z" fill="#4DA8F2"/>
<path d="M67.7393 51.9305L66.0836 50.4868C65.9477 50.3686 65.9337 50.1623 66.0519 50.0268C66.1701 49.891 66.3763 49.8769 66.5121 49.9951L67.6829 51.0163L69.3528 49.1536C69.4729 49.0197 69.6795 49.0085 69.8134 49.1289C69.9473 49.249 69.9585 49.455 69.8384 49.5896L67.7393 51.9305Z" fill="#4DA8F2"/>
<g opacity="0.78">
<path d="M33.3253 55.3005H12.3061C11.3454 55.3005 10.5664 54.5215 10.5664 53.5609V48.0526C10.5664 47.092 11.3454 46.3126 12.3061 46.3126H33.3253C34.2862 46.3126 35.0649 47.092 35.0649 48.0526V53.5609C35.0646 54.5215 34.2859 55.3005 33.3253 55.3005Z" fill="#4DA8F2"/>
</g>
<path d="M61.2183 0.506429L61.1523 0.224227C61.6649 0.104426 61.9298 0.000960966 61.9326 0L62.039 0.269712C62.0275 0.273876 61.7513 0.381824 61.2183 0.506429Z" fill="#C2BEBC"/>
<path d="M10.7363 62.7095H8.50684V70.8082H10.7363V62.7095Z" fill="#78C2FF"/>
<path d="M13.9081 61.8911H11.6787V70.8069H13.9081V61.8911Z" fill="#78C2FF"/>
<path d="M17.124 63.5897H14.8945V70.8088H17.124V63.5897Z" fill="#78C2FF"/>
<path d="M20.3388 60.2439H18.1094V70.8088H20.3388V60.2439Z" fill="#78C2FF"/>
<path d="M23.7128 61.2947H21.4834V70.8073H23.7128V61.2947Z" fill="#78C2FF"/>
<path d="M27.1318 62.7095H24.9023V70.8082H27.1318V62.7095Z" fill="#78C2FF"/>
<path d="M30.3037 61.8911H28.0742V70.8069H30.3037V61.8911Z" fill="#78C2FF"/>
<path d="M33.5195 63.5898H31.29V70.8089H33.5195V63.5898Z" fill="#78C2FF"/>
</svg>
